<svg width="29" height="29" viewBox="0 0 29 29" fill="none" xmlns="http://www.w3.org/2000/svg">
<path d="M28.0876 23.6819L24.1135 19.7079L19.7079 24.1135L23.682 28.0876C24.8986 29.3041 26.871 29.3041 28.0876 28.0876C29.3041 26.871 29.3041 24.8985 28.0876 23.6819Z" fill="white"/>
<path d="M12.4962 24.5626C12.7135 24.5626 12.931 24.4796 13.0969 24.3137C13.4287 23.9819 13.4287 23.444 13.0969 23.1122L12.0987 22.114L28.6882 8.55058C28.8855 8.38921 29 8.14775 29 7.89281V0.849609C29 0.380398 28.6196 0 28.1504 0H21.107C20.8521 0 20.6107 0.114471 20.4493 0.311806L6.88597 16.9013L5.88773 15.903C5.55599 15.5713 5.01802 15.5712 4.68622 15.903C4.35442 16.2348 4.35442 16.7728 4.68622 17.1046L11.8954 24.3137C12.0613 24.4797 12.2787 24.5626 12.4962 24.5626ZM23.7104 4.08803C24.0422 3.75623 24.5801 3.75623 24.9119 4.08803C25.2437 4.41983 25.2437 4.95775 24.9119 5.28955L10.0931 20.1084L8.89155 18.9069L23.7104 4.08803Z" fill="white"/>
<path d="M5.31805 28.0876L9.29206 24.1135L4.88651 19.7079L0.912437 23.682C-0.304146 24.8986 -0.304146 26.871 0.912437 28.0876C2.12902 29.3041 4.10147 29.3041 5.31805 28.0876Z" fill="white"/>
<path d="M0.311823 8.55063L7.02865 14.0422L9.64301 10.8445L4.08805 5.28955C3.75625 4.95781 3.75625 4.41983 4.08805 4.08803C4.41985 3.75623 4.95776 3.75623 5.28956 4.08803L10.724 9.52247L13.4026 6.24627L8.55064 0.311806C8.38927 0.114471 8.14782 0 7.89288 0H0.849625C0.380414 0 1.6489e-05 0.380398 1.6489e-05 0.849609V7.89292C1.6489e-05 8.14786 0.114487 8.38926 0.311823 8.55063Z" fill="white"/>
<path d="M23.1122 15.9031L22.114 16.9013L21.7313 16.4333L19.4775 18.276L20.1084 18.9069L18.9069 20.1084L18.1554 19.3569L15.8423 21.2481L16.9013 22.114L15.9031 23.1122C15.5713 23.4439 15.5713 23.9819 15.9031 24.3137C16.2349 24.6455 16.7728 24.6455 17.1046 24.3137L24.3138 17.1045C24.4797 16.9386 24.5626 16.7213 24.5626 16.5038C24.5626 16.2864 24.4797 16.0689 24.3138 15.9031C23.982 15.5713 23.444 15.5713 23.1122 15.9031Z" fill="white"/>
</svg>
